<svg width="331" height="167" viewBox="0 0 331 167" fill="none" xmlns="http://www.w3.org/2000/svg">
<path d="M24.9444 309.811C29.2616 308.735 33.5331 306.397 35.9268 302.501C38.3619 298.544 39.6668 293.812 38.6057 289.173C37.0772 282.462 36.0458 275.656 35.4416 268.806C34.7976 256.829 35.5706 244.817 37.6895 233.01C40.2128 221.256 44.0716 209.83 49.2455 198.978C54.5095 188.855 60.9236 179.387 68.3696 170.735C76.2993 162.121 85.1969 154.45 94.8562 147.83C96.9901 146.465 99.1427 145.138 101.345 143.881C99.7889 150.376 98.4281 156.916 97.2884 163.49C95.8897 171.507 95.6594 179.288 96.4262 187.398C97.2698 196.369 100.892 205.06 106.507 212.085C108.33 214.364 110.613 216.282 112.815 218.162C114.158 219.306 115.581 220.308 117.131 221.153C119.725 222.565 122.448 223.999 125.265 224.969C128.254 225.997 131.441 226.533 134.537 227.059C139.231 227.854 144.154 227.481 148.841 226.901C153.563 226.311 158.25 224.738 162.61 222.916C167.192 221.001 171.489 218.091 175.433 215.134C178.467 212.861 181.21 210.235 183.758 207.437C190.004 200.574 195.348 193.287 200.004 185.259C202.933 180.193 205.648 174.949 207.89 169.543C210.158 164.093 211.484 158.491 212.521 152.686C215.963 133.3 208.278 111.722 191.29 100.993C181.828 95.0252 171.011 92.3562 160 91.8711C164.399 85.0023 169.251 78.4464 174.597 72.2699C182.119 64.1089 190.477 56.7501 199.628 50.4748C206.687 46.0013 214.149 42.1722 222.007 39.2913C227.299 37.6493 232.717 36.473 238.23 35.8887C242.367 35.7445 246.499 35.9577 250.593 36.5912C254.458 37.5268 258.219 38.8286 261.848 40.4553C266.062 42.7561 270.026 45.4791 273.712 48.5513C277.638 52.286 281.169 56.404 284.3 60.8292C287.204 65.5156 289.639 70.4645 291.576 75.6347C293.698 82.4 295.067 89.3628 295.74 96.416C296.257 106.501 295.474 116.587 293.677 126.518C290.164 142.731 284.043 158.225 276.813 173.13C271.742 183.182 266.24 193.013 260.652 202.783C258.285 206.911 256.995 211.32 257.973 216.111C258.81 220.231 261.642 224.85 265.283 227.094C269.196 229.503 274.028 230.916 278.611 229.772C282.837 228.718 287.348 226.388 289.594 222.462C299.342 205.436 308.886 188.171 316.457 170.033C323.407 153.374 328.321 135.747 330.179 117.756C331.123 108.654 330.909 99.6339 330.143 90.5309C329.496 82.8422 328.037 75.2147 325.637 67.869C322.914 59.5471 319.733 51.5766 314.964 44.2061C310.252 36.9182 305.188 30.134 298.727 24.2895C295.046 20.9548 291.344 17.7086 287.22 14.9308C283.085 12.1498 278.635 9.89489 274.129 7.76926C266.371 4.09213 257.757 2.02545 249.234 1.18318C231.542 -0.562425 213.407 4.11183 197.509 11.6498C189.357 15.5186 181.667 20.3897 174.334 25.6363C168.009 30.1589 162.072 35.2152 156.563 40.6917C144.45 52.7192 133.923 66.3223 125.58 81.2075C122.346 86.9833 119.376 92.8809 116.643 98.8908C108.208 101.638 99.9793 105.048 92.1551 109.071C64.3992 123.325 39.9959 145.355 24.1183 172.316C15.556 186.852 8.91793 202.624 5.11214 219.076C3.04022 228.015 1.43855 237.093 0.709241 246.247C-0.0168481 255.391 0.240965 264.468 0.925373 273.596C1.48362 281.202 2.59253 288.742 4.29035 296.165C5.28063 300.517 7.86633 304.619 11.6006 307.148C15.1963 309.587 20.6461 310.893 24.9284 309.827L24.9444 309.811ZM173.404 161.307C169.524 168.733 164.949 175.933 159.554 182.346C157.227 184.776 154.739 187.024 152.032 189.018C150.378 189.997 148.671 190.852 146.899 191.59C145.353 192.004 143.798 192.32 142.212 192.54C140.837 192.547 139.471 192.463 138.109 192.305C137.251 192.066 136.417 191.782 135.585 191.467C135.087 191.16 134.605 190.838 134.13 190.496C133.728 190.064 133.342 189.615 132.972 189.151C132.562 188.399 132.194 187.619 131.858 186.839C131.41 185.112 131.086 183.364 130.867 181.589C130.715 175.643 131.474 169.721 132.556 163.878C135.046 151.786 138.289 139.843 142.446 128.223C145.714 127.593 149.005 127.108 152.312 126.797C156.399 126.646 160.496 126.805 164.54 127.401C166.643 127.927 168.701 128.585 170.706 129.426C171.796 130.072 172.848 130.768 173.855 131.534C174.54 132.253 175.196 132.994 175.814 133.785C176.37 134.788 176.882 135.829 177.334 136.891C177.763 138.484 178.079 140.102 178.302 141.742C178.346 144.218 178.172 146.684 177.821 149.142C176.766 153.357 175.248 157.414 173.42 161.355L173.404 161.307Z" fill="#A7E8BD"/>
</svg>
