<svg width="188" height="160" viewBox="0 0 188 160" fill="none" xmlns="http://www.w3.org/2000/svg">
<path d="M49.8444 -75.7052C46.8578 -74.9899 43.941 -74.0035 41.1292 -72.7408C37.2532 -70.9928 33.4433 -68.9214 29.9249 -66.5309C26.3909 -64.1216 23.2682 -61.2313 20.2063 -58.2514C17.9929 -56.1005 15.9733 -53.7427 14.1861 -51.2251C11.6893 -47.701 9.36984 -43.9598 7.50905 -40.0546C5.63439 -36.1135 4.3111 -31.948 3.09435 -27.7581C2.2102 -24.7032 1.56746 -21.5761 1.17054 -18.4208C0.623062 -14.0442 0.456264 -9.59162 0.571618 -5.18382C0.650246 -2.04865 0.96276 1.08115 1.53079 4.16012C2.29696 8.29639 3.26679 12.4736 4.6938 16.4416C6.10719 20.3587 8.07571 24.0918 10.202 27.6619C12.3078 31.1993 15.0052 34.1237 17.8461 37.0949C20.7247 40.0971 24.1688 42.3065 27.7413 44.408C31.3233 46.5172 35.2981 47.7548 39.2871 48.8695C42.0981 49.6558 44.9962 50.0863 47.8984 50.2908C54.1473 50.7173 60.2844 50.5296 66.4725 49.9722C66.1283 51.2558 65.784 52.5394 65.457 53.8213C62.9923 63.489 61.1599 73.321 59.9688 83.2296C58.8216 92.7867 58.1173 102.613 59.2486 112.21C59.8528 117.36 60.9727 122.547 62.6558 127.454C63.2731 129.252 64.0075 131.004 64.8839 132.698C66.3161 135.468 67.7705 138.287 69.6385 140.806C76.5684 150.126 86.8415 156.412 98.2713 158.428C101.496 159.001 104.837 159.076 108.095 159.098C110.145 159.116 112.204 158.951 114.23 158.624C119.46 157.769 124.665 156.387 129.365 153.908C132.28 152.366 135.17 150.835 137.818 148.868C140.402 146.959 142.728 144.719 145.029 142.49C148.941 138.698 151.897 134.27 154.73 129.646C156.925 126.055 158.715 122.227 160.047 118.234C161.849 112.833 163.364 107.424 163.934 101.752C165.085 90.2672 163.942 78.9443 160.264 67.9803C158.446 62.5744 155.801 57.4138 152.829 52.5627C150.033 47.9898 146.545 44.0743 142.853 40.2047C140.049 37.2646 136.969 34.6031 133.635 32.2702C129.313 29.2432 124.735 26.4492 119.908 24.3046C116.543 22.8168 113.029 21.5866 109.467 20.578C110.651 18.284 111.907 16.0177 113.237 13.8049C115.991 9.62204 119.089 5.66635 122.616 2.11172C124.848 0.158636 127.23 -1.60056 129.763 -3.14005C132.06 -4.25719 134.436 -5.17378 136.885 -5.88034C139.378 -6.32196 141.891 -6.54855 144.424 -6.56873C147.758 -6.29339 151.055 -5.69317 154.292 -4.80935C158.291 -3.40915 162.139 -1.60354 165.794 0.541992C170.14 3.45391 174.131 6.82566 177.816 10.531C185.989 19.5132 192.504 29.8371 198.526 40.3565C200.313 43.4733 202.05 46.6124 203.796 49.7507C204.912 51.4134 206.34 52.6987 208.085 53.5971C209.668 54.7891 211.458 55.5182 213.464 55.7923C215.529 56.2256 217.532 56.1179 219.493 55.4761C221.488 55.187 223.296 54.4124 224.918 53.1437C227.934 50.7586 230.464 47.3963 230.96 43.4761L231.113 39.4242C230.85 36.7063 229.907 34.2454 228.321 32.0293C223.785 23.8573 219.224 15.6791 214.032 7.90074C208.233 -0.773652 201.523 -8.89953 193.807 -15.9466C190.139 -19.2977 186.164 -22.1415 181.967 -24.7813C177.796 -27.4063 173.538 -29.7798 168.937 -31.5643C163.831 -33.5429 158.463 -35.1836 153.036 -35.9937C147.759 -36.7837 142.242 -37.0035 136.924 -36.4264C133.574 -36.0578 130.274 -35.26 127.022 -34.4233C124.988 -33.9047 123.006 -33.2175 121.071 -32.4045C118.111 -31.1448 115.251 -29.5736 112.484 -27.9419C110.792 -26.9442 109.163 -25.8398 107.604 -24.638C100.147 -18.9133 93.8707 -11.7494 88.8582 -3.8225C85.9904 0.709938 83.2739 5.27978 80.9203 10.1009C79.5875 12.8261 78.3636 15.6016 77.1939 18.3978C72.4979 18.8536 67.8187 19.4815 63.1304 19.928C59.6816 20.2628 56.2116 20.4694 52.7457 20.4499C50.2441 20.2587 47.7603 19.8921 45.3219 19.278C43.9339 18.7529 42.5892 18.1368 41.2878 17.4297C40.2229 16.6562 39.2125 15.8167 38.2564 14.9111C36.9805 13.3941 35.8425 11.7769 34.8096 10.0801C33.5267 7.41777 32.5098 4.63414 31.721 1.78496C30.973 -2.07524 30.6267 -6.00049 30.6355 -9.93418C30.9248 -13.9298 31.5914 -17.884 32.649 -21.7458C33.7786 -24.9549 35.1796 -28.0513 36.8632 -31.0103C38.6178 -33.5941 40.5972 -36.0088 42.7765 -38.2432C45.2022 -40.354 47.8154 -42.2311 50.5914 -43.8636C53.2038 -45.1243 55.9152 -46.1689 58.712 -46.9613C60.9461 -47.3779 63.2048 -47.6319 65.4801 -47.7138C67.5604 -47.8377 69.4538 -48.4556 71.1509 -49.5753C72.958 -50.3671 74.4747 -51.5562 75.6908 -53.1588C77.0288 -54.6691 77.9048 -56.3776 78.3342 -58.3032C79.1058 -60.1926 79.3488 -62.1609 79.0702 -64.2262C78.52 -68.1056 76.8469 -72.0149 73.6252 -74.4369C72.5344 -75.1211 71.4435 -75.8052 70.3518 -76.4979C67.8719 -77.6289 65.2765 -78.0715 62.5579 -77.8163C58.1981 -77.6535 54.0596 -76.7308 49.8255 -75.7207L49.8444 -75.7052ZM122.688 62.5904C125.005 65.2652 127.071 68.1292 128.869 71.1757C130.639 74.7456 132.052 78.4805 133.094 82.3295C133.907 86.4092 134.311 90.5633 134.298 94.7231C134.025 98.5348 133.402 102.311 132.415 106.01C131.242 109.397 129.762 112.657 127.963 115.766C126.335 118.138 124.511 120.364 122.497 122.426C120.765 123.905 118.916 125.248 116.974 126.435C115.272 127.234 113.514 127.908 111.708 128.439C109.846 128.759 107.97 128.933 106.081 128.968C104.459 128.805 102.852 128.526 101.27 128.142C100.114 127.69 98.98 127.183 97.8811 126.596C96.9373 125.906 96.0315 125.16 95.1723 124.358C94.2366 123.216 93.3742 122.024 92.6006 120.762C91.5623 118.562 90.7417 116.28 90.089 113.939C89.1181 108.945 88.7889 103.855 88.8509 98.7703C89.5139 85.3882 91.9697 71.9622 95.2703 59.0099C96.1382 55.6092 97.0947 52.2259 98.1139 48.8627C99.6005 49.1524 101.066 49.4963 102.529 49.8926C106.196 51.1775 109.73 52.7965 113.104 54.7348C116.548 57.0311 119.755 59.6542 122.678 62.5827L122.688 62.5904Z" fill="#3C91E6"/>
</svg>
